<svg width="384" height="93" viewBox="0 0 384 93" fill="none" xmlns="http://www.w3.org/2000/svg">
<path d="M62.4 27.536L67.392 74H50.816L49.792 40.848L43.392 74H26.624L20.096 41.104L19.136 74H2.56L7.552 27.536H29.312L34.88 57.808L39.744 27.536H62.4ZM106.354 58H85.4895C85.8308 59.8773 86.6628 61.4133 87.9855 62.608C89.3508 63.76 91.2708 64.336 93.7455 64.336C95.5375 64.336 97.2228 63.9947 98.8015 63.312C100.38 62.5867 101.639 61.584 102.578 60.304C105.436 61.712 109.234 63.2267 113.97 64.848C112.647 67.8347 110.236 70.224 106.738 72.016C103.282 73.7653 98.7588 74.64 93.1695 74.64C85.9162 74.64 80.5402 72.976 77.0415 69.648C73.5855 66.2773 71.8575 61.8613 71.8575 56.4C71.8575 51.0667 73.5855 46.736 77.0415 43.408C80.4975 40.08 85.8735 38.416 93.1695 38.416C97.5215 38.416 101.298 39.1413 104.498 40.592C107.698 42.0427 110.151 44.0693 111.858 46.672C113.564 49.232 114.418 52.176 114.418 55.504C114.418 56.6133 114.375 57.4453 114.29 58H106.354ZM94.0655 48.08C91.9322 48.08 90.1828 48.4853 88.8175 49.296C87.4522 50.1067 86.4922 51.216 85.9375 52.624H101.042C100.53 51.2587 99.6975 50.1707 98.5455 49.36C97.3935 48.5067 95.9002 48.08 94.0655 48.08ZM139.481 74.64C132.185 74.64 126.809 72.976 123.353 69.648C119.939 66.2773 118.233 61.8613 118.233 56.4C118.233 51.0667 119.939 46.736 123.353 43.408C126.809 40.08 132.185 38.416 139.481 38.416C144.387 38.416 148.483 39.2267 151.769 40.848C155.097 42.4267 157.55 44.5813 159.129 47.312C160.707 50 161.497 53.0293 161.497 56.4C161.497 61.904 159.662 66.32 155.993 69.648C152.366 72.976 146.862 74.64 139.481 74.64ZM139.737 63.76C142.51 63.76 144.579 63.0987 145.945 61.776C147.31 60.4533 147.993 58.6827 147.993 56.464C147.993 54.3733 147.31 52.6667 145.945 51.344C144.579 49.9787 142.51 49.296 139.737 49.296C136.963 49.296 134.937 49.9573 133.657 51.28C132.377 52.6027 131.737 54.3307 131.737 56.464C131.737 58.6827 132.377 60.4533 133.657 61.776C134.937 63.0987 136.963 63.76 139.737 63.76ZM198.955 64.144L204.459 39.056H217.195L210.091 74H193.003L188.971 57.68L184.427 74H167.979L160.875 39.056H173.611L179.051 64.08L182.763 39.056H195.371L198.955 64.144ZM229.552 56.528C229.637 58.704 230.32 60.4533 231.6 61.776C232.923 63.0987 234.864 63.76 237.424 63.76C238.832 63.76 240.091 63.504 241.2 62.992C242.309 62.4373 243.333 61.6267 244.272 60.56C247.899 61.968 252.144 63.184 257.008 64.208C255.6 67.4933 253.211 70.0533 249.84 71.888C246.512 73.7227 242.181 74.64 236.848 74.64C229.723 74.64 224.453 72.976 221.04 69.648C217.627 66.32 215.92 61.9467 215.92 56.528C215.92 51.1093 217.627 46.736 221.04 43.408C224.453 40.08 229.723 38.416 236.848 38.416C242.181 38.416 246.512 39.3333 249.84 41.168C253.211 43.0027 255.6 45.5627 257.008 48.848C253.211 49.6587 248.965 50.8747 244.272 52.496C243.333 51.4293 242.309 50.64 241.2 50.128C240.091 49.5733 238.832 49.296 237.424 49.296C234.864 49.296 232.923 49.9573 231.6 51.28C230.32 52.6027 229.637 54.352 229.552 56.528ZM302.834 63.376C302.834 64.8267 303.005 65.8507 303.346 66.448C303.687 67.0453 304.37 67.472 305.394 67.728L305.138 73.744C303.773 73.9573 302.578 74.1067 301.554 74.192C300.573 74.2773 299.25 74.32 297.586 74.32C293.917 74.32 291.485 73.5093 290.29 71.888C289.095 70.224 288.498 68.112 288.498 65.552V63.952C287.261 67.4507 285.447 70.0533 283.058 71.76C280.711 73.4667 277.703 74.32 274.034 74.32C269.767 74.32 266.546 73.4667 264.37 71.76C262.237 70.0533 261.17 67.5147 261.17 64.144C261.17 61.3707 262.087 59.1947 263.922 57.616C265.757 56.0373 268.594 54.9493 272.434 54.352C269.191 52.048 265.949 50.0427 262.706 48.336C265.266 45.0933 268.189 42.64 271.474 40.976C274.759 39.2693 278.749 38.416 283.442 38.416C290.013 38.416 294.877 39.8453 298.034 42.704C301.234 45.52 302.834 49.872 302.834 55.76V63.376ZM284.786 49.68C282.61 49.68 280.69 50.0427 279.026 50.768C277.362 51.4933 275.869 52.5813 274.546 54.032C277.106 53.7333 280.306 53.584 284.146 53.584C285.725 53.584 286.834 53.392 287.474 53.008C288.114 52.624 288.434 52.1333 288.434 51.536C288.434 51.024 288.114 50.5973 287.474 50.256C286.834 49.872 285.938 49.68 284.786 49.68ZM278.066 63.888C280.455 63.888 282.61 63.44 284.53 62.544C286.45 61.6053 287.773 60.3893 288.498 58.896V57.232C287.474 57.744 286.343 58.1493 285.106 58.448C283.869 58.704 282.375 58.96 280.626 59.216L278.322 59.6C275.933 60.0693 274.738 60.88 274.738 62.032C274.738 63.2693 275.847 63.888 278.066 63.888ZM329.92 74.64C326.336 74.64 322.688 74.1493 318.976 73.168C315.306 72.144 311.85 70.608 308.608 68.56L315.328 59.408C317.29 60.816 319.658 61.9253 322.432 62.736C325.205 63.504 327.594 63.888 329.6 63.888C331.52 63.888 332.992 63.632 334.016 63.12C335.082 62.5653 335.616 61.8613 335.616 61.008C335.616 60.3253 335.36 59.792 334.848 59.408C334.336 59.024 333.632 58.832 332.736 58.832C332.181 58.832 331.541 58.8533 330.816 58.896C330.133 58.9387 329.578 58.9813 329.152 59.024C326.933 59.28 324.65 59.408 322.304 59.408C318.506 59.408 315.413 58.704 313.024 57.296C310.677 55.8453 309.504 53.4987 309.504 50.256C309.504 46.5013 311.274 43.6 314.816 41.552C318.357 39.4613 323.562 38.416 330.432 38.416C333.802 38.416 337.194 38.9067 340.608 39.888C344.064 40.8267 347.114 42.256 349.76 44.176L342.4 51.6C339.968 50.32 337.685 49.424 335.552 48.912C333.461 48.3573 331.349 48.08 329.216 48.08C327.722 48.08 326.442 48.3787 325.376 48.976C324.309 49.5733 323.776 50.256 323.776 51.024C323.776 51.6213 323.989 52.0907 324.416 52.432C324.885 52.7733 325.482 52.944 326.208 52.944C326.933 52.944 327.936 52.88 329.216 52.752C332.33 52.5387 334.656 52.432 336.192 52.432C340.629 52.432 344.064 53.1787 346.496 54.672C348.928 56.1653 350.144 58.448 350.144 61.52C350.144 66.128 348.352 69.4773 344.768 71.568C341.184 73.616 336.234 74.64 329.92 74.64ZM382.365 50.512C378.439 50.256 374.855 50.064 371.613 49.936L371.549 56.72C371.549 59.024 372.039 60.8373 373.021 62.16C374.045 63.44 375.837 64.08 378.397 64.08C379.378 64.08 380.317 63.9947 381.213 63.824C381.042 65.4027 380.957 67.0027 380.957 68.624C380.957 69.392 380.999 71.1413 381.085 73.872C379.207 74.2133 377.629 74.4267 376.349 74.512C375.069 74.5973 373.405 74.64 371.357 74.64C366.365 74.64 362.823 73.4453 360.733 71.056C358.685 68.624 357.661 65.2533 357.661 60.944L357.725 50.128C355.719 50.2133 353.629 50.3413 351.453 50.512V39.184C353.671 39.184 355.549 38.48 357.085 37.072C358.621 35.664 359.538 33.9787 359.837 32.016H377.245C375.069 35.0027 372.658 37.392 370.013 39.184H382.365V50.512Z" fill="black"/>
<circle cx="138.5" cy="56.5" r="10.5" fill="black"/>
<path d="M131.609 27.3483C132.315 25.7256 134.625 25.751 135.295 27.3887L140.018 38.9377C140.468 40.0389 139.863 41.2874 138.72 41.6166L127.581 44.8247C125.955 45.2929 124.519 43.6568 125.193 42.1054L131.609 27.3483Z" fill="black"/>
<path d="M143.678 27.4545C144.352 25.8073 146.68 25.7942 147.372 27.4336L153.411 41.7362C154.058 43.2688 152.66 44.8755 151.053 44.4465L140.334 41.586C139.17 41.2752 138.543 40.0123 138.999 38.8966L143.678 27.4545Z" fill="black"/>
</svg>
