<svg width="381" height="48" viewBox="0 0 381 48" fill="none" xmlns="http://www.w3.org/2000/svg">
<path d="M60.4 0.535999L65.392 47H48.816L47.792 13.848L41.392 47H24.624L18.096 14.104L17.136 47H0.56L5.552 0.535999H27.312L32.88 30.808L37.744 0.535999H60.4ZM104.354 31H83.4895C83.8308 32.8773 84.6628 34.4133 85.9855 35.608C87.3508 36.76 89.2708 37.336 91.7455 37.336C93.5375 37.336 95.2228 36.9947 96.8015 36.312C98.3802 35.5867 99.6388 34.584 100.578 33.304C103.436 34.712 107.234 36.2267 111.97 37.848C110.647 40.8347 108.236 43.224 104.738 45.016C101.282 46.7653 96.7588 47.64 91.1695 47.64C83.9162 47.64 78.5402 45.976 75.0415 42.648C71.5855 39.2773 69.8575 34.8613 69.8575 29.4C69.8575 24.0667 71.5855 19.736 75.0415 16.408C78.4975 13.08 83.8735 11.416 91.1695 11.416C95.5215 11.416 99.2975 12.1413 102.498 13.592C105.698 15.0427 108.151 17.0693 109.858 19.672C111.564 22.232 112.418 25.176 112.418 28.504C112.418 29.6133 112.375 30.4453 112.29 31H104.354ZM92.0655 21.08C89.9322 21.08 88.1828 21.4853 86.8175 22.296C85.4522 23.1067 84.4922 24.216 83.9375 25.624H99.0415C98.5295 24.2587 97.6975 23.1707 96.5455 22.36C95.3935 21.5067 93.9002 21.08 92.0655 21.08ZM137.481 47.64C130.185 47.64 124.809 45.976 121.353 42.648C117.939 39.2773 116.233 34.8613 116.233 29.4C116.233 24.0667 117.939 19.736 121.353 16.408C124.809 13.08 130.185 11.416 137.481 11.416C142.387 11.416 146.483 12.2267 149.769 13.848C153.097 15.4267 155.55 17.5813 157.129 20.312C158.707 23 159.497 26.0293 159.497 29.4C159.497 34.904 157.662 39.32 153.993 42.648C150.366 45.976 144.862 47.64 137.481 47.64ZM137.737 36.76C140.51 36.76 142.579 36.0987 143.945 34.776C145.31 33.4533 145.993 31.6827 145.993 29.464C145.993 27.3733 145.31 25.6667 143.945 24.344C142.579 22.9787 140.51 22.296 137.737 22.296C134.963 22.296 132.937 22.9573 131.657 24.28C130.377 25.6027 129.737 27.3307 129.737 29.464C129.737 31.6827 130.377 33.4533 131.657 34.776C132.937 36.0987 134.963 36.76 137.737 36.76ZM196.955 37.144L202.459 12.056H215.195L208.091 47H191.003L186.971 30.68L182.427 47H165.979L158.875 12.056H171.611L177.051 37.08L180.763 12.056H193.371L196.955 37.144ZM227.552 29.528C227.637 31.704 228.32 33.4533 229.6 34.776C230.923 36.0987 232.864 36.76 235.424 36.76C236.832 36.76 238.091 36.504 239.2 35.992C240.309 35.4373 241.333 34.6267 242.272 33.56C245.899 34.968 250.144 36.184 255.008 37.208C253.6 40.4933 251.211 43.0533 247.84 44.888C244.512 46.7227 240.181 47.64 234.848 47.64C227.723 47.64 222.453 45.976 219.04 42.648C215.627 39.32 213.92 34.9467 213.92 29.528C213.92 24.1093 215.627 19.736 219.04 16.408C222.453 13.08 227.723 11.416 234.848 11.416C240.181 11.416 244.512 12.3333 247.84 14.168C251.211 16.0027 253.6 18.5627 255.008 21.848C251.211 22.6587 246.965 23.8747 242.272 25.496C241.333 24.4293 240.309 23.64 239.2 23.128C238.091 22.5733 236.832 22.296 235.424 22.296C232.864 22.296 230.923 22.9573 229.6 24.28C228.32 25.6027 227.637 27.352 227.552 29.528ZM300.834 36.376C300.834 37.8267 301.005 38.8507 301.346 39.448C301.687 40.0453 302.37 40.472 303.394 40.728L303.138 46.744C301.773 46.9573 300.578 47.1067 299.554 47.192C298.573 47.2773 297.25 47.32 295.586 47.32C291.917 47.32 289.485 46.5093 288.29 44.888C287.095 43.224 286.498 41.112 286.498 38.552V36.952C285.261 40.4507 283.447 43.0533 281.058 44.76C278.711 46.4667 275.703 47.32 272.034 47.32C267.767 47.32 264.546 46.4667 262.37 44.76C260.237 43.0533 259.17 40.5147 259.17 37.144C259.17 34.3707 260.087 32.1947 261.922 30.616C263.757 29.0373 266.594 27.9493 270.434 27.352C267.191 25.048 263.949 23.0427 260.706 21.336C263.266 18.0933 266.189 15.64 269.474 13.976C272.759 12.2693 276.749 11.416 281.442 11.416C288.013 11.416 292.877 12.8453 296.034 15.704C299.234 18.52 300.834 22.872 300.834 28.76V36.376ZM282.786 22.68C280.61 22.68 278.69 23.0427 277.026 23.768C275.362 24.4933 273.869 25.5813 272.546 27.032C275.106 26.7333 278.306 26.584 282.146 26.584C283.725 26.584 284.834 26.392 285.474 26.008C286.114 25.624 286.434 25.1333 286.434 24.536C286.434 24.024 286.114 23.5973 285.474 23.256C284.834 22.872 283.938 22.68 282.786 22.68ZM276.066 36.888C278.455 36.888 280.61 36.44 282.53 35.544C284.45 34.6053 285.773 33.3893 286.498 31.896V30.232C285.474 30.744 284.343 31.1493 283.106 31.448C281.869 31.704 280.375 31.96 278.626 32.216L276.322 32.6C273.933 33.0693 272.738 33.88 272.738 35.032C272.738 36.2693 273.847 36.888 276.066 36.888ZM327.92 47.64C324.336 47.64 320.688 47.1493 316.976 46.168C313.306 45.144 309.85 43.608 306.608 41.56L313.328 32.408C315.29 33.816 317.658 34.9253 320.432 35.736C323.205 36.504 325.594 36.888 327.6 36.888C329.52 36.888 330.992 36.632 332.016 36.12C333.082 35.5653 333.616 34.8613 333.616 34.008C333.616 33.3253 333.36 32.792 332.848 32.408C332.336 32.024 331.632 31.832 330.736 31.832C330.181 31.832 329.541 31.8533 328.816 31.896C328.133 31.9387 327.578 31.9813 327.152 32.024C324.933 32.28 322.65 32.408 320.304 32.408C316.506 32.408 313.413 31.704 311.024 30.296C308.677 28.8453 307.504 26.4987 307.504 23.256C307.504 19.5013 309.274 16.6 312.816 14.552C316.357 12.4613 321.562 11.416 328.432 11.416C331.802 11.416 335.194 11.9067 338.608 12.888C342.064 13.8267 345.114 15.256 347.76 17.176L340.4 24.6C337.968 23.32 335.685 22.424 333.552 21.912C331.461 21.3573 329.349 21.08 327.216 21.08C325.722 21.08 324.442 21.3787 323.376 21.976C322.309 22.5733 321.776 23.256 321.776 24.024C321.776 24.6213 321.989 25.0907 322.416 25.432C322.885 25.7733 323.482 25.944 324.208 25.944C324.933 25.944 325.936 25.88 327.216 25.752C330.33 25.5387 332.656 25.432 334.192 25.432C338.629 25.432 342.064 26.1787 344.496 27.672C346.928 29.1653 348.144 31.448 348.144 34.52C348.144 39.128 346.352 42.4773 342.768 44.568C339.184 46.616 334.234 47.64 327.92 47.64ZM380.365 23.512C376.439 23.256 372.855 23.064 369.613 22.936L369.549 29.72C369.549 32.024 370.039 33.8373 371.021 35.16C372.045 36.44 373.837 37.08 376.397 37.08C377.378 37.08 378.317 36.9947 379.213 36.824C379.042 38.4027 378.957 40.0027 378.957 41.624C378.957 42.392 378.999 44.1413 379.085 46.872C377.207 47.2133 375.629 47.4267 374.349 47.512C373.069 47.5973 371.405 47.64 369.357 47.64C364.365 47.64 360.823 46.4453 358.733 44.056C356.685 41.624 355.661 38.2533 355.661 33.944L355.725 23.128C353.719 23.2133 351.629 23.3413 349.453 23.512V12.184C351.671 12.184 353.549 11.48 355.085 10.072C356.621 8.664 357.538 6.97867 357.837 5.016H375.245C373.069 8.00267 370.658 10.392 368.013 12.184H380.365V23.512Z" fill="black"/>
</svg>
